<?xml version="1.0" encoding="UTF-8"?>
<svg id="Capa_2" data-name="Capa 2" xmlns="http://www.w3.org/2000/svg" width="419.61" height="419.61" viewBox="0 0 419.61 419.61">
  <defs>
    <style>
      .cls-1 {
        fill: #fff0ed;
      }

      .cls-2 {
        fill: #c45245;
      }
    </style>
  </defs>
  <g id="Capa_1-2" data-name="Capa 1">
    <g id="icono">
      <rect class="cls-1" width="419.61" height="419.61" rx="77.42" ry="77.42"/>
      <path class="cls-2" d="M285.51,84.39h-30.16c-11.19,0-20.26,9.07-20.26,20.26v20.52s29.07,0,49.8,0c11.26,0,20.4-9.13,20.4-20.39v-.61c0-10.92-8.85-19.78-19.78-19.78ZM283.35,140.65h-48.26v57.85c-10.91-24.78-22.91-51.84-32.48-73.4-10.99-24.76-35.53-40.71-62.62-40.71-14.18,0-25.68,11.5-25.68,25.68v168.58c0,31.25,25.33,56.58,56.58,56.58h0c7.52,0,13.61-6.09,13.61-13.61v-70.26l21.47,35.6c18.07,29.96,50.5,48.27,85.49,48.27,7.63,0,13.82-6.19,13.82-13.82v-158.82c0-12.11-9.82-21.94-21.94-21.94Z"/>
    </g>
  </g>
</svg>